<svg width="1200" height="720" viewBox="0 0 1200 720" fill="none" xmlns="http://www.w3.org/2000/svg" role="img" aria-label="PII privacy filter">
  <rect width="1200" height="720" fill="#0B1220"/>
  <rect x="132" y="104" width="936" height="512" rx="34" fill="#111827" stroke="#38BDF8" stroke-width="5"/>
  <rect x="188" y="164" width="824" height="72" rx="18" fill="#1F2937"/>
  <g fill="#CBD5E1">
    <rect x="214" y="282" width="332" height="22" rx="11"/>
    <rect x="214" y="336" width="470" height="22" rx="11"/>
    <rect x="214" y="390" width="280" height="22" rx="11"/>
    <rect x="214" y="444" width="520" height="22" rx="11"/>
  </g>
  <g fill="#0EA5E9">
    <rect x="586" y="278" width="230" height="34" rx="17"/>
    <rect x="720" y="332" width="250" height="34" rx="17"/>
    <rect x="536" y="386" width="198" height="34" rx="17"/>
    <rect x="776" y="440" width="196" height="34" rx="17"/>
  </g>
  <path d="M860 174L900 214L974 140" stroke="#A7F3D0" stroke-width="18" stroke-linecap="round" stroke-linejoin="round"/>
</svg>
